<?xml version="1.0" standalone="no"?>
<!DOCTYPE svg PUBLIC "-//W3C//DTD SVG 20010904//EN"
 "http://www.w3.org/TR/2001/REC-SVG-20010904/DTD/svg10.dtd">
<svg version="1.0" xmlns="http://www.w3.org/2000/svg"
 width="1000.000000pt" height="563.000000pt" viewBox="0 0 1000.000000 563.000000"
 preserveAspectRatio="xMidYMid meet">
<metadata>
Created by potrace 1.16, written by Peter Selinger 2001-2019
</metadata>
<g transform="translate(0.000000,563.000000) scale(0.100000,-0.100000)"
fill="#000000" stroke="none">
<path d="M457 3355 c-128 -35 -240 -116 -315 -229 -58 -86 -80 -147 -90 -243
-25 -243 89 -457 300 -564 117 -59 265 -76 392 -43 235 60 416 294 416 539 0
246 -179 478 -415 540 -72 18 -221 18 -288 0z m268 -87 c153 -38 288 -175 330
-333 42 -163 -3 -324 -124 -446 -97 -97 -197 -139 -331 -139 -132 0 -234 42
-328 136 -183 183 -186 466 -5 655 118 124 285 170 458 127z"/>
<path d="M550 3169 c-122 -51 -135 -213 -23 -284 31 -20 32 -22 33 -94 l0 -75
-35 34 c-31 30 -35 40 -35 85 0 118 -107 192 -216 150 -114 -43 -134 -204 -33
-276 38 -27 108 -36 150 -19 30 13 31 12 100 -56 l69 -68 0 -88 0 -88 50 0 50
0 0 88 0 88 68 67 c64 64 70 67 96 57 43 -16 95 -12 135 11 53 30 74 65 79
129 3 45 0 61 -20 89 -50 74 -116 96 -194 66 -62 -23 -97 -77 -99 -149 0 -45
-5 -59 -33 -90 l-32 -37 0 78 c0 76 1 78 30 95 94 53 101 198 14 265 -39 29
-112 40 -154 22z"/>
<path d="M1685 3355 c-173 -38 -336 -159 -410 -305 -44 -86 -57 -154 -53 -264
3 -95 6 -107 46 -191 76 -158 221 -274 402 -321 127 -33 323 -17 432 36 l38
18 0 -29 c0 -18 7 -32 19 -39 25 -13 247 -13 272 0 18 10 19 23 19 210 0 192
-1 201 -21 218 -12 9 -33 27 -48 39 l-26 22 31 1 c62 0 65 8 62 180 l-3 155
-213 143 -213 142 -137 -1 c-75 0 -164 -7 -197 -14z m325 -353 l115 -77 7 -50
c3 -27 7 -156 7 -284 l1 -235 -70 107 c-38 59 -74 107 -81 107 -6 0 -36 -7
-67 -16 -137 -40 -292 19 -355 135 -36 66 -43 124 -24 192 28 95 103 164 208
194 92 25 129 15 259 -73z"/>
<path d="M2530 3351 c-11 -21 -14 -538 -4 -578 3 -12 24 -33 45 -47 48 -32 49
-46 4 -46 -47 0 -55 -19 -55 -140 0 -147 -8 -140 165 -140 159 0 146 -5 157
63 2 14 38 -5 178 -95 l175 -113 240 -3 c234 -3 276 2 260 28 -4 7 -193 135
-419 285 -226 150 -417 279 -424 288 -9 10 -12 46 -10 118 l3 104 245 3 c175
2 251 -1 267 -9 31 -17 73 -104 73 -152 0 -76 3 -77 163 -77 98 0 147 4 155
12 17 17 15 149 -3 227 -20 85 -65 167 -129 235 l-52 56 -512 0 c-495 0 -512
-1 -522 -19z"/>
<path d="M4291 3354 c-163 -36 -329 -162 -400 -304 -49 -98 -65 -173 -58 -270
16 -238 203 -447 455 -506 133 -32 320 -16 425 35 l37 18 0 -28 c0 -18 7 -32
19 -39 21 -11 248 -14 275 -4 14 5 16 34 16 215 l0 208 -47 33 c-45 31 -46 33
-23 36 76 8 70 -5 70 172 l0 159 -32 24 c-18 14 -114 79 -212 146 l-179 121
-141 -1 c-80 -1 -169 -7 -205 -15z m334 -350 c70 -47 117 -86 121 -98 2 -12 3
-137 2 -279 l-3 -259 -58 90 c-75 118 -74 117 -138 98 -113 -34 -228 -10 -312
64 -61 54 -89 114 -89 191 0 131 95 240 235 269 83 17 118 6 242 -76z"/>
<path d="M5620 3350 c-7 -13 -10 -68 -8 -143 l3 -122 -160 3 c-274 6 -349 -9
-299 -58 18 -18 227 -157 558 -372 l158 -103 -162 -3 c-130 -2 -167 0 -185 12
-31 20 -67 99 -73 158 -4 41 -8 49 -28 54 -33 8 -256 1 -271 -9 -19 -12 -17
-200 3 -268 20 -65 67 -138 129 -199 l46 -45 500 -3 c338 -2 506 1 519 8 19
10 20 21 20 163 0 108 -4 158 -12 169 -16 19 -196 142 -487 332 l-223 146 280
0 c244 0 281 2 286 15 15 40 -81 209 -149 260 -31 25 -35 25 -233 25 -192 0
-202 -1 -212 -20z"/>
<path d="M6910 3354 c-148 -31 -302 -136 -379 -258 -104 -165 -114 -343 -30
-514 38 -78 137 -185 213 -231 186 -112 423 -126 629 -36 12 5 17 3 17 -9 0
-9 9 -25 20 -36 18 -18 33 -20 141 -20 66 0 129 5 140 10 18 10 19 23 19 209
l0 199 -47 41 c-47 40 -48 40 -20 41 65 0 67 6 67 168 0 104 -4 153 -12 164
-7 9 -104 77 -215 152 l-203 136 -137 -1 c-77 0 -167 -7 -203 -15z m330 -352
l115 -77 3 -279 2 -279 -66 101 c-36 56 -72 102 -78 102 -7 0 -34 -7 -60 -16
-146 -50 -335 38 -381 176 -51 154 50 312 225 351 77 17 118 4 240 -79z"/>
<path d="M7756 3354 c-10 -27 -7 -574 4 -594 5 -10 25 -27 45 -39 46 -27 44
-41 -4 -41 -26 0 -41 -5 -45 -16 -12 -30 -7 -239 6 -252 17 -17 279 -17 296 0
7 7 12 27 12 45 0 18 4 33 9 33 5 0 89 -51 187 -114 174 -112 179 -115 248
-121 39 -3 141 -5 226 -3 172 3 177 6 141 65 -14 22 -124 101 -365 260 -190
125 -346 231 -346 236 0 4 154 109 343 233 188 125 350 236 359 249 9 12 20
34 24 49 l6 26 -224 0 -224 0 -190 -120 -189 -121 -2 98 c-4 157 12 143 -162
143 -127 0 -150 -2 -155 -16z"/>
<path d="M9172 3350 c-312 -82 -509 -377 -437 -654 53 -203 229 -372 441 -422
135 -32 321 -17 427 35 l37 18 0 -23 c0 -46 21 -54 155 -54 68 0 130 3 139 6
14 5 16 34 16 215 l0 208 -47 33 c-45 31 -46 33 -23 36 75 8 70 -5 70 171 0
141 -2 160 -19 175 -10 9 -105 75 -212 146 l-193 130 -141 -1 c-104 0 -159 -5
-213 -19z m348 -350 l120 -80 0 -278 0 -277 -65 97 c-35 53 -69 99 -74 103 -6
3 -36 -2 -67 -11 -250 -72 -476 158 -368 374 49 99 172 167 286 157 39 -3 68
-18 168 -85z"/>
</g>
</svg>
